<!DOCTYPE svg PUBLIC "-//W3C//DTD SVG 1.1//EN" "http://www.w3.org/Graphics/SVG/1.1/DTD/svg11.dtd">
<!-- Uploaded to: SVG Repo, www.svgrepo.com, Transformed by: SVG Repo Mixer Tools -->
<svg height="64px" width="64px" version="1.1" id="Capa_1" xmlns="http://www.w3.org/2000/svg" xmlns:xlink="http://www.w3.org/1999/xlink" viewBox="-3.2 -3.2 38.40 38.40" xml:space="preserve" fill="" stroke="" stroke-width="0.00032">
<g id="SVGRepo_bgCarrier" stroke-width="0" transform="translate(0,0), scale(1)">
<rect x="-3.2" y="-3.2" width="38.40" height="38.40" rx="19.2" fill="#F0F8FF" strokewidth="0"/>
</g>
<g id="SVGRepo_tracerCarrier" stroke-linecap="round" stroke-linejoin="round" stroke="#CCCCCC" stroke-width="0.064"/>
<g id="SVGRepo_iconCarrier"> <g> <g id="spin"> <g> <path style="fill:#008EFF;" d="M25.883,6.086l-2.82,2.832C24.953,10.809,26,13.324,26,16c0,5.516-4.484,10-10,10v-2l-4,4l4,4v-2 c7.719,0,14-6.281,14-14C30,12.254,28.539,8.734,25.883,6.086z"/> <path style="fill:#008EFF;" d="M20,4l-4-4v2C8.281,2,2,8.281,2,16c0,3.746,1.461,7.266,4.117,9.914l2.82-2.832 C7.047,21.191,6,18.676,6,16c0-5.516,4.484-10,10-10v2L20,4z"/> </g> </g> </g> </g>
</svg>